<?xml version="1.0" standalone="no"?>
<!DOCTYPE svg PUBLIC "-//W3C//DTD SVG 1.1//EN" "http://www.w3.org/Graphics/SVG/1.1/DTD/svg11.dtd" >
<svg xmlns="http://www.w3.org/2000/svg">
<metadata>
This is a custom SVG webfont generated by Font Squirrel.
Copyright   : Morgan Allan Knutson
Designer    : Morgan Allan Knutson
Foundry     : Morgan Allan Knutson
</metadata>
<defs>
<font id="MenschMenschThin" horiz-adv-x="1705" >
<font-face units-per-em="2048" ascent="1536" descent="-512" />
<missing-glyph horiz-adv-x="1024" />
<glyph unicode=" "  horiz-adv-x="1024" />
<glyph unicode="&#x09;" horiz-adv-x="1024" />
<glyph unicode="&#xa0;" horiz-adv-x="1024" />
<glyph unicode="!" horiz-adv-x="507" d="M213 39q0 16 10 25.5t25 9.5q14 0 24.5 -9.5t10.5 -25.5q0 -14 -10.5 -23.5t-24.5 -9.5t-24.5 9.5t-10.5 23.5zM227 197v1284q0 20 23 20t22 -20v-1284q0 -20 -22 -21q-23 1 -23 21z" />
<glyph unicode="&#x22;" horiz-adv-x="577" d="M178 1243v244q0 20 21 20q20 0 20 -20v-244q0 -20 -20 -20q-21 0 -21 20zM342 1243v244q0 20 20 20t21 -20v-244q0 -20 -21 -20q-20 0 -20 20z" />
<glyph unicode="#" />
<glyph unicode="$" />
<glyph unicode="%" />
<glyph unicode="&#x26;" />
<glyph unicode="'" horiz-adv-x="305" d="M125 1346v243q0 20 20 21q20 0 21 -21v-243q0 -20 -21 -21q-20 1 -20 21z" />
<glyph unicode="(" horiz-adv-x="622" />
<glyph unicode=")" horiz-adv-x="616" />
<glyph unicode="*" horiz-adv-x="698" d="M53 1206q0 23 23 23h235l-116 205q-4 8 -3 17t11 13q18 8 28 -8l119 -205l117 205q4 8 13 10t18 -2q8 -4 10 -13t-2 -17l-119 -205h238q20 0 20 -23q0 -20 -20 -20h-238l119 -205q4 -8 2 -17.5t-10 -13.5q-2 -2 -11 -2q-12 0 -18 10l-119 205l-117 -205q-6 -10 -20 -10 q-6 0 -10 2q-8 4 -10.5 13.5t2.5 17.5l116 205h-235q-23 0 -23 20z" />
<glyph unicode="+" horiz-adv-x="1001" d="M199 846q0 20 20 20h250v250q0 20 20 21q20 0 21 -21v-250h248q20 0 20 -20t-20 -21h-248v-247q0 -20 -21 -21q-20 0 -20 21v247h-250q-20 1 -20 21z" />
<glyph unicode="," horiz-adv-x="393" d="M137 -106l68 233q6 20 24 14q20 -4 15 -24l-68 -234q-4 -20 -24 -14q-19 5 -15 25z" />
<glyph unicode="-" d="M578 838q0 23 22 22h442q23 0 23 -22q0 -20 -23 -21h-442q-22 1 -22 21z" />
<glyph unicode="." horiz-adv-x="215" d="M70 39q0 16 10 25.5t24 9.5t24.5 -9.5t10.5 -25.5q0 -14 -10 -23.5t-25 -9.5q-14 0 -24 9.5t-10 23.5z" />
<glyph unicode="/" horiz-adv-x="602" d="M125 86l268 1329q4 20 25 17q20 -4 16 -25l-268 -1329q-4 -16 -21 -17h-4q-20 5 -16 25z" />
<glyph unicode="0" horiz-adv-x="823" d="M109 313v35v840q0 164 98 256q39 37 91 56.5t108 19.5q55 0 107 -18.5t93 -53.5q27 -25 45 -51l4 -4q55 -80 56 -205v-854v-31q0 -27 -8.5 -64.5t-26 -80.5t-51.5 -80q-78 -84 -219 -84q-137 0 -216 84q-35 37 -52 82t-23 84.5t-6 68.5zM153 305q-1 -39 13 -90l444 1163 q-39 53 -95 76t-109 23q-47 0 -93.5 -17.5t-81 -52.5t-56 -90t-21.5 -129v-840v-2q0 -2 -1 -41zM190 156q12 -29 33 -50q66 -70 183 -69q121 0 188 72q31 33 45 71.5t20.5 72.5t6.5 57v24l2 854q0 82 -29 143z" />
<glyph unicode="1" horiz-adv-x="843" d="M145 35q0 23 23 22h266v1368l-239 -239q-6 -6 -15.5 -6t-15.5 6q-18 14 0 31l276 276q10 10 25 6q12 -6 12 -20v-1422h260q20 0 21 -22q0 -23 -21 -23h-569q-23 0 -23 23z" />
<glyph unicode="2" horiz-adv-x="950" d="M154 14q0 90 25.5 178.5t78.5 180.5q45 80 102 154l117 147l101 127q49 63 86.5 126.5t60.5 129t23 135.5v2q2 37 -7 74q-6 33 -20 69.5t-43 67.5q-68 72 -191 72q-125 0 -184 -70q-27 -31 -39 -67.5t-15 -68.5t-2 -53l1 -22q4 -20 -19 -25q-20 -4 -24 19q0 2 -2 26.5 t2 61.5t18.5 78t44.5 78q74 86 219 86q143 0 224 -86q33 -35 50 -75t24.5 -76t7.5 -61v-32q0 -74 -24 -143.5t-63.5 -136t-90 -132l-105.5 -131.5l-111 -140q-55 -71 -98 -145.5t-71.5 -155.5t-32.5 -169h409q55 0 88 11t49.5 34.5t21.5 59.5t5 85q0 23 21 23q23 0 22 -23 q0 -55 -6 -97t-29 -73q-25 -33 -65.5 -48t-106.5 -15h-432q-20 0 -20 20z" />
<glyph unicode="3" horiz-adv-x="888" d="M125 292.5q2 24.5 2 26.5q4 23 25 19q23 -4 18 -25l-1 -21q-1 -22 2 -53.5t15.5 -67.5t38.5 -67q59 -72 185 -71q193 0 270 100q57 72 57 203q0 246 -93 358.5t-298 112.5q-23 0 -22 20v2q0 23 22 23q86 0 148.5 7t101.5 40t57.5 103.5t18.5 193.5v22q0 22 -6.5 54.5 t-21.5 69t-44 67.5q-66 72 -190 72q-125 0 -185 -72q-27 -31 -39 -66.5t-15 -67.5t-2 -53l1 -22q4 -20 -18 -24q-20 -4 -25 18q0 2 -2 26.5t3 61.5t19.5 78t45.5 78q74 86 217 86t223 -86q33 -35 50 -76t24.5 -76t7.5 -60v-32q0 -133 -21.5 -210t-68.5 -118q-39 -33 -95 -45 q78 -29 129 -82q121 -123 121 -403q0 -74 -16 -130t-49 -100q-90 -117 -305 -116q-143 0 -217 86q-31 37 -45.5 78t-19.5 77.5t-3 61z" />
<glyph unicode="4" horiz-adv-x="833" d="M76 762l190 723q8 20 27 14q20 -4 16 -26l-184 -695h580v701q0 23 22 22q23 0 23 -22v-1444q0 -23 -23 -23t-22 23v700h-609q-10 0 -16 8q-6 11 -4 19z" />
<glyph unicode="5" horiz-adv-x="954" d="M160 168q-4 20 16 27q23 4 27 -17q35 -133 243 -133q215 0 293 154q16 33 24.5 67.5t12.5 66.5t5 59.5t1 45.5q0 37 -9 105.5t-45 136.5t-108.5 119t-199.5 51h-219q-8 0 -15 6q-8 8 -8 16l2 619q0 23 21 22h493q20 0 21 -22q0 -23 -21 -23h-471v-573h197q129 0 221 -55 q37 -25 68.5 -57.5t54.5 -73.5q41 -76 52 -152t11 -119q0 -41 -6 -113.5t-43 -146.5q-41 -82 -114 -125q-90 -53 -218 -53q-76 0 -127 15.5t-83.5 40t-50 54t-25.5 58.5z" />
<glyph unicode="6" horiz-adv-x="954" d="M74 758q0 199 84 360q63 125 182 230q49 41 96 69.5t85 47t61.5 26.5t25.5 8q18 8 27 -14q6 -18 -14 -27l-23 -8q-23 -8 -58.5 -25.5t-80.5 -45t-92 -66.5q-250 -213 -250 -555v-2q-4 -74 -2 -140.5t12 -126.5q0 4 1 6.5t1 4.5t2 4q2 4 19.5 44t58.5 87q41 45 114.5 88 t190.5 43t184.5 -41t102.5 -86t47 -84t12 -43q23 -106 -1.5 -212.5t-88.5 -178.5q-96 -109 -248 -109q-18 0 -28 2q-119 6 -205 68q-88 63 -139 168q-92 189 -76 508zM160 395q0 -18 4 -38.5t9 -39t10 -32t7 -19.5q2 0 3 -4q100 -193 305 -205q150 -10 239 93q55 66 78 161 t2 193q0 2 -10 35.5t-41 74.5q-86 109 -252 109q-168 0 -272 -117q-20 -23 -32.5 -43t-21.5 -37q-8 -20 -16 -34q0 -2 -7 -30t-5 -67z" />
<glyph unicode="7" horiz-adv-x="825" d="M78 1470q0 23 22 23h652q10 0 16 -8q6 -10 4 -19l-414 -1431q-4 -14 -20 -15h-6q-23 8 -15 27l406 1403h-623q-22 0 -22 20z" />
<glyph unicode="8" horiz-adv-x="829" d="M55 336q0 281 121 403q49 53 127 82q-57 12 -92 45q-47 41 -68.5 118t-21.5 210q0 2 -1 6t-1 12q0 14 1 41t7 57.5t20.5 64.5t40.5 63q74 86 218 86h10h10q143 0 217 -86q27 -29 41 -63t20.5 -64.5t6.5 -57.5v-43v-16q0 -133 -21.5 -210t-68.5 -118q-35 -31 -93 -45 q78 -29 127 -82q121 -123 121 -403v-23v-6v-8q-10 -121 -65 -193q-70 -88 -205 -108q-33 -8 -80 -8h-10h-10q-41 0 -74 6q-143 23 -213 110q-64 85 -64 230zM98 322q2 -23 8 -46q4 -20 14.5 -46.5t26.5 -53.5q63 -113 191 -137q18 -2 36.5 -3t41.5 -3q23 2 44 3t40 5 q123 25 184 131q27 41 36 78t11 53q2 8 2 16v17q0 223 -75.5 334.5t-241.5 132.5q-166 -20 -242 -132t-76 -335v-14zM164 1190q0 -119 17.5 -188.5t56.5 -102.5q31 -27 74.5 -35t103.5 -12q59 4 103 12t73 35q39 33 57.5 102.5t18.5 188.5q-2 4 -2 10q2 0 2 12q0 14 -2 37 t-9.5 50.5t-21.5 56t-37 53.5q-66 70 -182 70q-117 0 -183 -70q-23 -25 -37 -53.5t-21 -56t-9 -51t-2 -36.5v-12q2 -4 1 -5t-1 -5z" />
<glyph unicode="9" horiz-adv-x="884" d="M72 1001q-23 106 1.5 213t88.5 179q102 119 276 106q86 -4 146.5 -27.5t107.5 -66.5q47 -45 79 -110.5t50 -164.5q20 -147 -37 -356q-47 -168 -141 -358q-41 -84 -81 -155l-73 -124l-53 -84l-20 -30q-6 -10 -19 -11q-4 0 -12 4t-9 13.5t3 17.5l20 31l54 83 q33 52 71.5 121.5t79.5 151.5q135 279 170 490q-6 -10 -13 -19l-16 -18q-41 -47 -120.5 -92t-206.5 -47q-117 0 -185.5 40.5t-101.5 83.5q-35 47 -47 86t-12 43zM113 1010l2 -2q2 -16 10 -35q6 -16 15.5 -34.5t25.5 -39.5q86 -109 252 -108q186 4 295 124q20 23 33.5 45.5 t21.5 38.5l14 37l2 2q0 43 -6 86q-35 168 -113.5 245t-230.5 87h-24q-133 0 -215 -92q-57 -66 -78.5 -161t-3.5 -193z" />
<glyph unicode=":" horiz-adv-x="344" d="M145 467q0 16 10.5 25.5t24.5 9.5t24.5 -9.5t10.5 -25.5q0 -14 -10 -23.5t-25 -9.5q-14 0 -24.5 9.5t-10.5 23.5zM145 1042q0 16 10.5 25.5t24.5 9.5t24.5 -9t10.5 -26q0 -14 -10 -23t-25 -9q-14 0 -24.5 9t-10.5 23z" />
<glyph unicode=";" horiz-adv-x="321" d="M102 440l68 234q6 20 25 14q20 -4 14 -24l-68 -234q-4 -20 -24 -14q-19 4 -15 24zM133 1042q0 16 10.5 25.5t24.5 9.5t24.5 -9t10.5 -26q0 -14 -10.5 -23t-24.5 -9t-24.5 9t-10.5 23z" />
<glyph unicode="&#x3c;" horiz-adv-x="794" d="M90 754q0 8 6 14l518 518q14 14 31 0q14 -16 0 -31l-502 -501l498 -496q14 -16 0 -31q-8 -8 -16 -8t-15 8l-514 510q-6 7 -6 17z" />
<glyph unicode="=" horiz-adv-x="1083" d="M72 549q0 23 20 22h883q23 0 22 -22q0 -23 -22 -23h-883q-20 0 -20 23zM72 965q0 20 20 20h883q23 0 22 -20q0 -23 -22 -23h-883q-20 0 -20 23z" />
<glyph unicode="&#x3e;" horiz-adv-x="815" d="M152 1271q0 9 6 15q14 14 30 0l519 -518q6 -6 6 -14q0 -10 -6 -17l-514 -510q-6 -8 -15 -8q-8 0 -16 8q-6 6 -6 15.5t6 15.5l497 496l-501 501q-6 7 -6 16z" />
<glyph unicode="?" horiz-adv-x="1089" d="M190 1114q0 80 30 149.5t82 122t123 83t150 30.5q80 0 150 -30.5t122 -83t83 -122t31 -149.5q0 -141 -74 -240q-35 -41 -74 -71.5t-80 -59.5q-63 -43 -110.5 -88t-47.5 -123v-118v-19v-4v-4v-82q0 -20 -22 -20q-23 0 -23 20v74v12q0 2 1 3t1 3v135q0 84 56 152 q25 29 55.5 51.5t65.5 44.5l75 55q37 28 67 66.5t48.5 89.5t18.5 123q0 70 -27 132.5t-74 109.5t-109.5 73.5t-132.5 26.5q-72 0 -133 -26.5t-108 -73.5t-74 -109.5t-27 -132.5q0 -23 -22 -22q-21 -1 -21 22zM522 45q0 12 9.5 21.5t21.5 9.5t21.5 -9.5t9.5 -21.5 q0 -14 -9.5 -23.5t-21.5 -9.5t-21.5 9.5t-9.5 23.5zM541 45q0 -12 12 -12t12 12t-12 12t-12 -12zM543 45q0 8 10 8t10 -8q0 -10 -10 -10t-10 10z" />
<glyph unicode="@" />
<glyph unicode="A" horiz-adv-x="866" d="M115 37l291 1448q2 0 2 2v2l2 2v2h2v2h2v2h2q0 2 2 2h2v2h2h4h2h2h4l2 -2h2h2v-2h2v-2h2v-2l2 -2v-2h3v-2v-2l290 -1448q2 -4 2 -7q0 -4 -3 -8q-5 -7 -15 -10h-4q-18 0 -23 17l-61 309h-414l-63 -309q-4 -16 -21 -17h-4q-22 5 -18 25zM229 383h398l-199 985z" />
<glyph unicode="B" horiz-adv-x="991" d="M203 33v1448q0 23 22 22h2h277q47 0 94 -28.5t82 -79.5q74 -109 74 -252t-74 -252q-33 -49 -76 -76q78 -29 137 -113q41 -59 61.5 -131.5t20.5 -152.5t-20.5 -152.5t-61.5 -132.5q-41 -59 -93 -91t-105 -32h-314h-2h-2q-22 0 -22 23zM248 53h295q47 0 90 30t75.5 80 t52 116.5t19.5 138.5q0 74 -19.5 139.5t-52 115.5t-75.5 79.5t-90 29.5h-295v-729zM248 825h256q41 0 77.5 26t65.5 70t46.5 101t17.5 121q0 63 -17.5 120.5t-46.5 100.5t-65.5 68.5t-77.5 25.5h-256v-633z" />
<glyph unicode="C" horiz-adv-x="991" d="M193 346v842q0 164 98 256q39 35 91 55.5t107 20.5t107.5 -19.5t93.5 -54.5q104 -86 105 -260q0 -20 -21 -21q-23 0 -22 21q0 80 -23.5 136t-61.5 90t-85 49.5t-93 15.5q-47 0 -93 -17.5t-81.5 -52.5t-57 -90t-21.5 -129v-844v-2v-26q0 -26 5 -61.5t20 -76.5t46 -74 q66 -72 182 -71q121 0 189 71q31 33 46 72t21.5 73t6.5 57v24q-2 10 4 16t16 6q10 2 16.5 -4t6.5 -16v-29q0 -27 -7.5 -65.5t-25 -82.5t-51.5 -81q-80 -84 -222 -84q-137 0 -215 84q-35 39 -52 84t-24 85q-6 35 -7 61q0 7 0.5 17t1 17t0.5 8z" />
<glyph unicode="D" horiz-adv-x="976" d="M188 33v1448q0 20 23 20h119h166q55 0 106 -19.5t90 -56.5q98 -92 99 -256v-825q0 -168 -99 -256q-39 -37 -90 -56.5t-106 -19.5h-166h-119q-23 1 -23 21zM231 55h99h166q47 0 92 16.5t81 52.5t57.5 90t21.5 130v825q0 74 -21.5 129.5t-57.5 90t-81 52t-92 17.5h-166h-99 v-1403z" />
<glyph unicode="E" horiz-adv-x="974" d="M207 33v1446q0 23 22 22h533q23 0 22 -22q0 -20 -22 -21h-512v-770h389q23 0 23 -20q0 -23 -23 -23h-389v-590h512q23 0 22 -22q0 -20 -22 -21h-533q-22 1 -22 21z" />
<glyph unicode="F" horiz-adv-x="960" d="M199 33v1446q0 23 20 22h547q23 0 22 -22q0 -20 -22 -21h-524v-770h401q23 0 23 -20q0 -23 -23 -23h-401v-612q0 -20 -23 -21q-20 1 -20 21z" />
<glyph unicode="G" horiz-adv-x="976" d="M188 348v842q0 164 99 256q39 35 91 55.5t107 20.5q51 0 103.5 -17.5t95.5 -57.5t69.5 -103.5t26.5 -155.5q0 -20 -20 -21q-23 0 -23 21q0 80 -22.5 135t-58 89t-81 49.5t-90.5 15.5q-47 0 -93 -16.5t-82 -52.5t-57.5 -90t-21.5 -128v-844v-2v-26q0 -26 5.5 -61.5 t20.5 -76.5t46 -74q66 -72 182 -71q121 0 189 71q31 33 46 72t21.5 73t6.5 57v24v2v323h-205q-23 0 -23 23t23 22h248v-368v-32q0 -28 -8.5 -65.5t-26 -79.5t-51.5 -79q-78 -86 -220 -86q-137 0 -215 84q-35 39 -52 84t-24 85q-6 35 -7 61q0 7 0.5 17t0.5 17v8z" />
<glyph unicode="H" horiz-adv-x="1054" d="M199 33v1448q0 20 22 20q20 0 21 -20v-793h561v793q0 20 20 20q23 0 23 -20v-1448q0 -20 -23 -21q-20 0 -20 21v612h-561v-612q0 -20 -21 -21q-22 1 -22 21z" />
<glyph unicode="I" horiz-adv-x="507" d="M227 33v1448q0 20 23 20t22 -20v-1448q0 -20 -22 -21q-23 1 -23 21z" />
<glyph unicode="J" horiz-adv-x="1009" d="M188 358q4 23 25 19q8 0 14 -6t4 -17v-25q0 -26 5.5 -62t20.5 -78t46 -74q66 -70 182 -70q121 0 189 72q31 33 46 71.5t21.5 72.5t6.5 57v24v1147q0 23 22 22q20 0 21 -22v-1145v-33q0 -27 -8.5 -64.5t-26 -80.5t-49.5 -80q-80 -84 -222 -84q-137 0 -215 84 q-37 39 -54 85t-23 87q-5 35 -6 60v9.5t0.5 10.5t0.5 10v6v4z" />
<glyph unicode="K" horiz-adv-x="1040" d="M197 35v1444q0 20 22 20q23 0 23 -20v-904l559 912q12 16 30 6q8 -4 10.5 -13.5t-1.5 -17.5l-357 -575q4 -2 5 -4t4 -4l417 -826q4 -7 4 -13q0 -11 -12 -17q-4 0 -6 -1.5t-4 -1.5q-14 0 -21 13l-411 813l-217 -354v-457q0 -20 -23 -21q-22 1 -22 21z" />
<glyph unicode="L" horiz-adv-x="1056" d="M238 33v1448q0 20 22 20q23 0 23 -20v-1426h526q23 0 22 -22q0 -20 -22 -21h-549q-22 1 -22 21z" />
<glyph unicode="M" horiz-adv-x="1167" d="M172 33v1448v2v2l2 2v2v2h2v2h2v2l2 2q2 0 2 2h2l2 2h2h2h3h2h2h2h2q2 0 2 -2h2l2 -2h2v-2h2v-2h2v-2v-2l373 -729l372 729v2v2h3v2h2v2h2q0 2 2 2h2q0 2 2 2h2h2h2h2h2h2h2q0 -2 2 -2h2v-2h2q0 -2 2 -2v-2h2v-2q2 0 2 -2v-2v-2h2v-2v-2v-1448q0 -20 -22 -21 q-23 0 -23 21v1356l-346 -684q-2 -8 -12 -15q-4 -2 -10 -2q-8 0 -11 2q-10 6 -12 15l-348 684v-1356q0 -20 -20 -21q-23 1 -23 21z" />
<glyph unicode="N" horiz-adv-x="1038" d="M186 33v1448v2l2 2v2v2l2 2v2h3v2h2v2h2q0 2 2 2h2q0 2 2 2h2h2h2h2h2h2h2q0 -2 2 -2h2v-2h2l2 -2v-2h2v-2l2 -2l584 -1350v1342q0 20 23 20t22 -20v-1448h-2v-2v-2v-2v-2h-2v-2v-3h-2v-2h-2v-2h-2v-2h-2l-2 -2h-4h-4h-5h-2q-2 0 -4 2h-2q0 2 -2 2l-2 2l-2 2v3q-2 0 -2 2 l-584 1349v-1341q0 -20 -22 -21q-23 1 -23 21z" />
<glyph unicode="O" horiz-adv-x="927" d="M154 311v35v840q0 164 98 256q41 35 92 55.5t107 20.5q55 0 107 -18.5t93 -53.5q104 -92 105 -260v-852v-33q0 -27 -8.5 -64.5t-25.5 -80.5t-52 -80q-80 -84 -219 -84q-137 0 -215 84q-35 37 -52.5 82t-23.5 84.5t-6 68.5zM197 311q0 -23 6 -54q6 -36 20.5 -78t44.5 -75 q66 -70 183 -69q121 0 188 71q31 33 45 72t20.5 73t6.5 57v24l2 854q0 80 -23.5 135t-61.5 89t-85 49.5t-92 15.5q-47 0 -93.5 -17.5t-81 -52.5t-56 -90t-21.5 -129v-842q-2 -29 -2 -33z" />
<glyph unicode="P" horiz-adv-x="970" d="M205 35v1442q0 14 12 20q4 4 12 4h314q53 0 105 -34.5t93 -98.5q39 -61 60.5 -138t21.5 -155q0 -80 -21.5 -156.5t-60.5 -136.5q-86 -133 -198 -133h-295v-614q0 -23 -23 -23q-20 0 -20 23zM248 692h295q43 0 85 30t77 83q35 55 55 125.5t20 144.5q0 72 -20.5 142.5 t-54.5 125.5q-35 53 -77 83t-85 30h-295v-764z" />
<glyph unicode="Q" horiz-adv-x="1024" d="M207 342v840q0 164 98 256q39 35 90 55t107 20q119 0 203 -71q104 -92 104 -260l-2 -852v-33q0 -27 -7 -64.5t-24.5 -80.5t-52.5 -80q-8 -8 -14 -13l120 -137q4 -8 4.5 -17t-6.5 -14q-10 -6 -14 -6q-10 0 -18 9l-121 139q-66 -45 -170 -45q-137 0 -215 84 q-35 37 -52.5 82t-24.5 85q-6 35 -6 61v17t0.5 17t0.5 8zM250 314q0 -26 5 -61.5t20.5 -77.5t46.5 -75q66 -70 182 -69q121 0 186 71q31 33 46.5 72t21.5 73t6 57v24v854q0 80 -23.5 135t-61.5 89t-85 49t-92 15q-47 0 -92 -17t-81 -52t-57.5 -90.5t-21.5 -128.5v-842v-26z " />
<glyph unicode="R" horiz-adv-x="1005" d="M195 35v1444q0 20 20 20h317q55 0 107.5 -33.5t93.5 -97.5q39 -61 60.5 -138t21.5 -157q0 -78 -21.5 -154.5t-60.5 -138.5q-63 -94 -141 -123l268 -614q2 -5 3 -9q0 -4 -2 -7q-3 -8 -11 -13h-8q-14 0 -21 13l-272 622q-6 -2 -17 -2h-294v-612q0 -20 -23 -21q-20 1 -20 21 zM238 692h294q43 0 86.5 30t77.5 83q35 55 54.5 125.5t19.5 142.5q0 74 -19.5 144.5t-54.5 125.5q-35 53 -78 83t-86 30h-294v-764z" />
<glyph unicode="S" horiz-adv-x="958" d="M162 326q0 23 22 22q20 0 21 -22q0 -98 31.5 -155.5t76.5 -87.5t93.5 -38t78.5 -8q53 0 105.5 15.5t94.5 49t67.5 89t25.5 135.5q0 92 -26.5 159.5t-70.5 122t-99 95.5l-113 83l-105 77q-50 38 -92 85q-90 109 -90 242v32q0 26 7.5 60.5t24.5 75.5t50 76q80 86 223 86 q145 0 220 -86q31 -37 44 -78t18 -78t3 -61.5t-2 -26.5q-4 -23 -25 -19q-23 4 -18 25l1 22q1 22 -2 53.5t-15.5 67t-38.5 66.5q-59 72 -185 72q-125 0 -190 -72q-29 -31 -43 -68t-20.5 -68.5t-6.5 -54.5v-22q0 -68 22.5 -120t59.5 -96t85 -81l100 -74q59 -41 116.5 -86 t104.5 -102q106 -131 106 -307q0 -166 -110 -258q-43 -35 -101.5 -54.5t-124.5 -19.5q-47 0 -107.5 13t-113.5 59q-102 90 -102 260z" />
<glyph unicode="T" horiz-adv-x="911" d="M88 1479q0 20 23 20h671q23 0 23 -20q0 -23 -23 -23h-311v-1421q0 -23 -22 -23q-20 0 -21 23v1421h-317q-23 0 -23 23z" />
<glyph unicode="U" horiz-adv-x="1026" d="M219 324v34v1131q0 20 23 20t22 -20v-1133v-2q-1 -15 -1 -29q0 -29 5 -57q4 -37 19.5 -76.5t46.5 -74.5q63 -70 182 -70q121 0 189 72q29 33 44 70.5t21 72.5q7 31 7 64q0 8 -1 16v2v1143q0 23 23 22q23 0 22 -22v-1143v-31q0 -27 -8 -64.5t-25.5 -80.5t-52.5 -80 q-78 -84 -219 -84q-139 0 -215 84q-35 37 -52.5 82t-23.5 85t-6 69z" />
<glyph unicode="V" horiz-adv-x="958" d="M156 1466q-4 18 18 27q3 1 6 1q15 0 19 -19l274 -1346l272 1346q7 19 22 19q3 0 5 -1q18 -6 18 -19q0 -3 -2 -8l-288 -1427q-4 -18 -23 -19h-4h-4q-18 0 -23 19z" />
<glyph unicode="W" horiz-adv-x="1280" d="M197 1475q-2 10 4 17t14 7q3 1 6 1q7 0 11 -4q7 -5 8 -15l168 -1346l223 676v2h2v2v2h2v2h2v2h2v2h2h2v2h2h2h2h2h2h2h2h2v-2h3q2 0 2 -2h2v-2h2v-2q2 0 2 -2t2 -2v-2l223 -676l166 1346q3 19 19 19q3 0 5 -1q10 0 15.5 -7t5.5 -17l-178 -1442v-2h-2v-2v-2v-2h-2v-2h-2 v-3l-2 -2h-2v-2h-3l-2 -2h-2h-2h-2l-2 -2l-2 2h-2h-2h-2v2h-2h-2v2h-2l-2 2v3q-2 0 -2 2l-2 2v2l-234 704l-233 -704v-2h-2v-2l-2 -2v-3h-2v-2h-2v-2h-2h-2v-2h-3h-2h-2l-2 -2q-2 0 -2 2h-2h-2h-2q-2 0 -2 2h-2l-2 2h-2v2l-2 3v2h-2v2v2q-2 0 -2 2v2z" />
<glyph unicode="X" horiz-adv-x="976" d="M186 49l226 590l55 145l-260 680q-8 18 12 27q6 2 12 2q13 0 17 -14l244 -633l243 633q4 15 17 14q5 0 12 -2q20 -8 12 -27l-262 -680l55 -145l228 -590q2 -6 2 -10q0 -12 -15 -16q-2 -2 -8 -3q-14 0 -20 15l-226 590l-38 98l-39 -98l-226 -590q-6 -14 -20 -15q-6 0 -8 3 q-15 4 -15 16q0 4 2 10z" />
<glyph unicode="Y" horiz-adv-x="913" d="M162 1468q-2 5 -2 10q0 13 14 19q6 2 12 2q13 0 17 -14l256 -647l256 647q4 15 17 14q5 0 11 -2q14 -6 14 -19q0 -4 -1 -10l-275 -694v-737q0 -23 -22 -23q-23 0 -23 23v737z" />
<glyph unicode="Z" horiz-adv-x="976" d="M188 49l557 1407h-446q-23 0 -23 23t23 22h477h2v-2h2h2h2q2 0 2 -2h2l3 -2q2 0 2 -2h2v-2l2 -2v-2l2 -2v-2v-2v-2v-2v-2v-2l-2 -3l-557 -1413h536q23 0 23 -22q0 -23 -23 -23h-555q-8 0 -14 6q-2 2 -4 2q-17 5 -17 18q0 5 2 11z" />
<glyph unicode="[" />
<glyph unicode="\" />
<glyph unicode="]" />
<glyph unicode="^" />
<glyph unicode="_" />
<glyph unicode="`" horiz-adv-x="413" d="M139 1616q-6 20 15 24q18 6 24 -14l68 -233q4 -20 -15 -25q-20 -6 -24 14z" />
<glyph unicode="a" horiz-adv-x="866" d="M115 37l291 1448q2 0 2 2v2l2 2v2h2v2h2v2h2q0 2 2 2h2v2h2h4h2h2h4l2 -2h2h2v-2h2v-2h2v-2l2 -2v-2h3v-2v-2l290 -1448q2 -4 2 -7q0 -4 -3 -8q-5 -7 -15 -10h-4q-18 0 -23 17l-61 309h-414l-63 -309q-4 -16 -21 -17h-4q-22 5 -18 25zM229 383h398l-199 985z" />
<glyph unicode="b" horiz-adv-x="991" d="M203 33v1448q0 23 22 22h2h277q47 0 94 -28.5t82 -79.5q74 -109 74 -252t-74 -252q-33 -49 -76 -76q78 -29 137 -113q41 -59 61.5 -131.5t20.5 -152.5t-20.5 -152.5t-61.5 -132.5q-41 -59 -93 -91t-105 -32h-314h-2h-2q-22 0 -22 23zM248 53h295q47 0 90 30t75.5 80 t52 116.5t19.5 138.5q0 74 -19.5 139.5t-52 115.5t-75.5 79.5t-90 29.5h-295v-729zM248 825h256q41 0 77.5 26t65.5 70t46.5 101t17.5 121q0 63 -17.5 120.5t-46.5 100.5t-65.5 68.5t-77.5 25.5h-256v-633z" />
<glyph unicode="c" horiz-adv-x="991" d="M193 346v842q0 164 98 256q39 35 91 55.5t107 20.5t107.5 -19.5t93.5 -54.5q104 -86 105 -260q0 -20 -21 -21q-23 0 -22 21q0 80 -23.5 136t-61.5 90t-85 49.5t-93 15.5q-47 0 -93 -17.5t-81.5 -52.5t-57 -90t-21.5 -129v-844v-2v-26q0 -26 5 -61.5t20 -76.5t46 -74 q66 -72 182 -71q121 0 189 71q31 33 46 72t21.5 73t6.5 57v24q-2 10 4 16t16 6q10 2 16.5 -4t6.5 -16v-29q0 -27 -7.5 -65.5t-25 -82.5t-51.5 -81q-80 -84 -222 -84q-137 0 -215 84q-35 39 -52 84t-24 85q-6 35 -7 61q0 7 0.5 17t1 17t0.5 8z" />
<glyph unicode="d" horiz-adv-x="976" d="M188 33v1448q0 20 23 20h119h166q55 0 106 -19.5t90 -56.5q98 -92 99 -256v-825q0 -168 -99 -256q-39 -37 -90 -56.5t-106 -19.5h-166h-119q-23 1 -23 21zM231 55h99h166q47 0 92 16.5t81 52.5t57.5 90t21.5 130v825q0 74 -21.5 129.5t-57.5 90t-81 52t-92 17.5h-166h-99 v-1403z" />
<glyph unicode="e" horiz-adv-x="974" d="M207 33v1446q0 23 22 22h533q23 0 22 -22q0 -20 -22 -21h-512v-770h389q23 0 23 -20q0 -23 -23 -23h-389v-590h512q23 0 22 -22q0 -20 -22 -21h-533q-22 1 -22 21z" />
<glyph unicode="f" horiz-adv-x="960" d="M199 33v1446q0 23 20 22h547q23 0 22 -22q0 -20 -22 -21h-524v-770h401q23 0 23 -20q0 -23 -23 -23h-401v-612q0 -20 -23 -21q-20 1 -20 21z" />
<glyph unicode="g" horiz-adv-x="976" d="M188 348v842q0 164 99 256q39 35 91 55.5t107 20.5q51 0 103.5 -17.5t95.5 -57.5t69.5 -103.5t26.5 -155.5q0 -20 -20 -21q-23 0 -23 21q0 80 -22.5 135t-58 89t-81 49.5t-90.5 15.5q-47 0 -93 -16.5t-82 -52.5t-57.5 -90t-21.5 -128v-844v-2v-26q0 -26 5.5 -61.5 t20.5 -76.5t46 -74q66 -72 182 -71q121 0 189 71q31 33 46 72t21.5 73t6.5 57v24v2v323h-205q-23 0 -23 23t23 22h248v-368v-32q0 -28 -8.5 -65.5t-26 -79.5t-51.5 -79q-78 -86 -220 -86q-137 0 -215 84q-35 39 -52 84t-24 85q-6 35 -7 61q0 7 0.5 17t0.5 17v8z" />
<glyph unicode="h" horiz-adv-x="1054" d="M199 33v1448q0 20 22 20q20 0 21 -20v-793h561v793q0 20 20 20q23 0 23 -20v-1448q0 -20 -23 -21q-20 0 -20 21v612h-561v-612q0 -20 -21 -21q-22 1 -22 21z" />
<glyph unicode="i" horiz-adv-x="507" d="M227 33v1448q0 20 23 20t22 -20v-1448q0 -20 -22 -21q-23 1 -23 21z" />
<glyph unicode="j" horiz-adv-x="1009" d="M188 358q4 23 25 19q8 0 14 -6t4 -17v-25q0 -26 5.5 -62t20.5 -78t46 -74q66 -70 182 -70q121 0 189 72q31 33 46 71.5t21.5 72.5t6.5 57v24v1147q0 23 22 22q20 0 21 -22v-1145v-33q0 -27 -8.5 -64.5t-26 -80.5t-49.5 -80q-80 -84 -222 -84q-137 0 -215 84 q-37 39 -54 85t-23 87q-5 35 -6 60v9.5t0.5 10.5t0.5 10v6v4z" />
<glyph unicode="k" horiz-adv-x="1040" d="M197 35v1444q0 20 22 20q23 0 23 -20v-904l559 912q12 16 30 6q8 -4 10.5 -13.5t-1.5 -17.5l-357 -575q4 -2 5 -4t4 -4l417 -826q4 -7 4 -13q0 -11 -12 -17q-4 0 -6 -1.5t-4 -1.5q-14 0 -21 13l-411 813l-217 -354v-457q0 -20 -23 -21q-22 1 -22 21z" />
<glyph unicode="l" horiz-adv-x="1056" d="M238 33v1448q0 20 22 20q23 0 23 -20v-1426h526q23 0 22 -22q0 -20 -22 -21h-549q-22 1 -22 21z" />
<glyph unicode="m" horiz-adv-x="1167" d="M172 33v1448v2v2l2 2v2v2h2v2h2v2l2 2q2 0 2 2h2l2 2h2h2h3h2h2h2h2q2 0 2 -2h2l2 -2h2v-2h2v-2h2v-2v-2l373 -729l372 729v2v2h3v2h2v2h2q0 2 2 2h2q0 2 2 2h2h2h2h2h2h2h2q0 -2 2 -2h2v-2h2q0 -2 2 -2v-2h2v-2q2 0 2 -2v-2v-2h2v-2v-2v-1448q0 -20 -22 -21 q-23 0 -23 21v1356l-346 -684q-2 -8 -12 -15q-4 -2 -10 -2q-8 0 -11 2q-10 6 -12 15l-348 684v-1356q0 -20 -20 -21q-23 1 -23 21z" />
<glyph unicode="n" horiz-adv-x="1038" d="M186 33v1448v2l2 2v2v2l2 2v2h3v2h2v2h2q0 2 2 2h2q0 2 2 2h2h2h2h2h2h2h2q0 -2 2 -2h2v-2h2l2 -2v-2h2v-2l2 -2l584 -1350v1342q0 20 23 20t22 -20v-1448h-2v-2v-2v-2v-2h-2v-2v-3h-2v-2h-2v-2h-2v-2h-2l-2 -2h-4h-4h-5h-2q-2 0 -4 2h-2q0 2 -2 2l-2 2l-2 2v3q-2 0 -2 2 l-584 1349v-1341q0 -20 -22 -21q-23 1 -23 21z" />
<glyph unicode="o" horiz-adv-x="927" d="M154 311v35v840q0 164 98 256q41 35 92 55.5t107 20.5q55 0 107 -18.5t93 -53.5q104 -92 105 -260v-852v-33q0 -27 -8.5 -64.5t-25.5 -80.5t-52 -80q-80 -84 -219 -84q-137 0 -215 84q-35 37 -52.5 82t-23.5 84.5t-6 68.5zM197 311q0 -23 6 -54q6 -36 20.5 -78t44.5 -75 q66 -70 183 -69q121 0 188 71q31 33 45 72t20.5 73t6.5 57v24l2 854q0 80 -23.5 135t-61.5 89t-85 49.5t-92 15.5q-47 0 -93.5 -17.5t-81 -52.5t-56 -90t-21.5 -129v-842q-2 -29 -2 -33z" />
<glyph unicode="p" horiz-adv-x="970" d="M205 35v1442q0 14 12 20q4 4 12 4h314q53 0 105 -34.5t93 -98.5q39 -61 60.5 -138t21.5 -155q0 -80 -21.5 -156.5t-60.5 -136.5q-86 -133 -198 -133h-295v-614q0 -23 -23 -23q-20 0 -20 23zM248 692h295q43 0 85 30t77 83q35 55 55 125.5t20 144.5q0 72 -20.5 142.5 t-54.5 125.5q-35 53 -77 83t-85 30h-295v-764z" />
<glyph unicode="q" horiz-adv-x="1024" d="M207 342v840q0 164 98 256q39 35 90 55t107 20q119 0 203 -71q104 -92 104 -260l-2 -852v-33q0 -27 -7 -64.5t-24.5 -80.5t-52.5 -80q-8 -8 -14 -13l120 -137q4 -8 4.5 -17t-6.5 -14q-10 -6 -14 -6q-10 0 -18 9l-121 139q-66 -45 -170 -45q-137 0 -215 84 q-35 37 -52.5 82t-24.5 85q-6 35 -6 61v17t0.5 17t0.5 8zM250 314q0 -26 5 -61.5t20.5 -77.5t46.5 -75q66 -70 182 -69q121 0 186 71q31 33 46.5 72t21.5 73t6 57v24v854q0 80 -23.5 135t-61.5 89t-85 49t-92 15q-47 0 -92 -17t-81 -52t-57.5 -90.5t-21.5 -128.5v-842v-26z " />
<glyph unicode="r" horiz-adv-x="1005" d="M195 35v1444q0 20 20 20h317q55 0 107.5 -33.5t93.5 -97.5q39 -61 60.5 -138t21.5 -157q0 -78 -21.5 -154.5t-60.5 -138.5q-63 -94 -141 -123l268 -614q2 -5 3 -9q0 -4 -2 -7q-3 -8 -11 -13h-8q-14 0 -21 13l-272 622q-6 -2 -17 -2h-294v-612q0 -20 -23 -21q-20 1 -20 21 zM238 692h294q43 0 86.5 30t77.5 83q35 55 54.5 125.5t19.5 142.5q0 74 -19.5 144.5t-54.5 125.5q-35 53 -78 83t-86 30h-294v-764z" />
<glyph unicode="s" horiz-adv-x="958" d="M162 326q0 23 22 22q20 0 21 -22q0 -98 31.5 -155.5t76.5 -87.5t93.5 -38t78.5 -8q53 0 105.5 15.5t94.5 49t67.5 89t25.5 135.5q0 92 -26.5 159.5t-70.5 122t-99 95.5l-113 83l-105 77q-50 38 -92 85q-90 109 -90 242v32q0 26 7.5 60.5t24.5 75.5t50 76q80 86 223 86 q145 0 220 -86q31 -37 44 -78t18 -78t3 -61.5t-2 -26.5q-4 -23 -25 -19q-23 4 -18 25l1 22q1 22 -2 53.5t-15.5 67t-38.5 66.5q-59 72 -185 72q-125 0 -190 -72q-29 -31 -43 -68t-20.5 -68.5t-6.5 -54.5v-22q0 -68 22.5 -120t59.5 -96t85 -81l100 -74q59 -41 116.5 -86 t104.5 -102q106 -131 106 -307q0 -166 -110 -258q-43 -35 -101.5 -54.5t-124.5 -19.5q-47 0 -107.5 13t-113.5 59q-102 90 -102 260z" />
<glyph unicode="t" horiz-adv-x="911" d="M88 1479q0 20 23 20h671q23 0 23 -20q0 -23 -23 -23h-311v-1421q0 -23 -22 -23q-20 0 -21 23v1421h-317q-23 0 -23 23z" />
<glyph unicode="u" horiz-adv-x="1026" d="M219 324v34v1131q0 20 23 20t22 -20v-1133v-2q-1 -15 -1 -29q0 -29 5 -57q4 -37 19.5 -76.5t46.5 -74.5q63 -70 182 -70q121 0 189 72q29 33 44 70.5t21 72.5q7 31 7 64q0 8 -1 16v2v1143q0 23 23 22q23 0 22 -22v-1143v-31q0 -27 -8 -64.5t-25.5 -80.5t-52.5 -80 q-78 -84 -219 -84q-139 0 -215 84q-35 37 -52.5 82t-23.5 85t-6 69z" />
<glyph unicode="v" horiz-adv-x="958" d="M156 1466q-4 18 18 27q3 1 6 1q15 0 19 -19l274 -1346l272 1346q7 19 22 19q3 0 5 -1q18 -6 18 -19q0 -3 -2 -8l-288 -1427q-4 -18 -23 -19h-4h-4q-18 0 -23 19z" />
<glyph unicode="w" horiz-adv-x="1280" d="M197 1475q-2 10 4 17t14 7q3 1 6 1q7 0 11 -4q7 -5 8 -15l168 -1346l223 676v2h2v2v2h2v2h2v2h2v2h2h2v2h2h2h2h2h2h2h2h2v-2h3q2 0 2 -2h2v-2h2v-2q2 0 2 -2t2 -2v-2l223 -676l166 1346q3 19 19 19q3 0 5 -1q10 0 15.5 -7t5.5 -17l-178 -1442v-2h-2v-2v-2v-2h-2v-2h-2 v-3l-2 -2h-2v-2h-3l-2 -2h-2h-2h-2l-2 -2l-2 2h-2h-2h-2v2h-2h-2v2h-2l-2 2v3q-2 0 -2 2l-2 2v2l-234 704l-233 -704v-2h-2v-2l-2 -2v-3h-2v-2h-2v-2h-2h-2v-2h-3h-2h-2l-2 -2q-2 0 -2 2h-2h-2h-2q-2 0 -2 2h-2l-2 2h-2v2l-2 3v2h-2v2v2q-2 0 -2 2v2z" />
<glyph unicode="x" horiz-adv-x="976" d="M186 49l226 590l55 145l-260 680q-8 18 12 27q6 2 12 2q13 0 17 -14l244 -633l243 633q4 15 17 14q5 0 12 -2q20 -8 12 -27l-262 -680l55 -145l228 -590q2 -6 2 -10q0 -12 -15 -16q-2 -2 -8 -3q-14 0 -20 15l-226 590l-38 98l-39 -98l-226 -590q-6 -14 -20 -15q-6 0 -8 3 q-15 4 -15 16q0 4 2 10z" />
<glyph unicode="y" horiz-adv-x="913" d="M162 1468q-2 5 -2 10q0 13 14 19q6 2 12 2q13 0 17 -14l256 -647l256 647q4 15 17 14q5 0 11 -2q14 -6 14 -19q0 -4 -1 -10l-275 -694v-737q0 -23 -22 -23q-23 0 -23 23v737z" />
<glyph unicode="z" horiz-adv-x="976" d="M188 49l557 1407h-446q-23 0 -23 23t23 22h477h2v-2h2h2h2q2 0 2 -2h2l3 -2q2 0 2 -2h2v-2l2 -2v-2l2 -2v-2v-2v-2v-2v-2v-2l-2 -3l-557 -1413h536q23 0 23 -22q0 -23 -23 -23h-555q-8 0 -14 6q-2 2 -4 2q-17 5 -17 18q0 5 2 11z" />
<glyph unicode="{" />
<glyph unicode="|" />
<glyph unicode="}" />
<glyph unicode="~" />
<glyph unicode="&#xaa;" horiz-adv-x="866" d="M115 37l291 1448q2 0 2 2v2l2 2v2h2v2h2v2h2q0 2 2 2h2v2h2h4h2h2h4l2 -2h2h2v-2h2v-2h2v-2l2 -2v-2h3v-2v-2l290 -1448q2 -4 2 -7q0 -4 -3 -8q-5 -7 -15 -10h-4q-18 0 -23 17l-61 309h-414l-63 -309q-4 -16 -21 -17h-4q-22 5 -18 25zM229 383h398l-199 985z" />
<glyph unicode="&#xad;" d="M578 838q0 23 22 22h442q23 0 23 -22q0 -20 -23 -21h-442q-22 1 -22 21z" />
<glyph unicode="&#xb2;" horiz-adv-x="950" d="M154 14q0 90 25.5 178.5t78.5 180.5q45 80 102 154l117 147l101 127q49 63 86.5 126.5t60.5 129t23 135.5v2q2 37 -7 74q-6 33 -20 69.5t-43 67.5q-68 72 -191 72q-125 0 -184 -70q-27 -31 -39 -67.5t-15 -68.5t-2 -53l1 -22q4 -20 -19 -25q-20 -4 -24 19q0 2 -2 26.5 t2 61.5t18.5 78t44.5 78q74 86 219 86q143 0 224 -86q33 -35 50 -75t24.5 -76t7.5 -61v-32q0 -74 -24 -143.5t-63.5 -136t-90 -132l-105.5 -131.5l-111 -140q-55 -71 -98 -145.5t-71.5 -155.5t-32.5 -169h409q55 0 88 11t49.5 34.5t21.5 59.5t5 85q0 23 21 23q23 0 22 -23 q0 -55 -6 -97t-29 -73q-25 -33 -65.5 -48t-106.5 -15h-432q-20 0 -20 20z" />
<glyph unicode="&#xb3;" horiz-adv-x="888" d="M125 292.5q2 24.5 2 26.5q4 23 25 19q23 -4 18 -25l-1 -21q-1 -22 2 -53.5t15.5 -67.5t38.5 -67q59 -72 185 -71q193 0 270 100q57 72 57 203q0 246 -93 358.5t-298 112.5q-23 0 -22 20v2q0 23 22 23q86 0 148.5 7t101.5 40t57.5 103.5t18.5 193.5v22q0 22 -6.5 54.5 t-21.5 69t-44 67.5q-66 72 -190 72q-125 0 -185 -72q-27 -31 -39 -66.5t-15 -67.5t-2 -53l1 -22q4 -20 -18 -24q-20 -4 -25 18q0 2 -2 26.5t3 61.5t19.5 78t45.5 78q74 86 217 86t223 -86q33 -35 50 -76t24.5 -76t7.5 -60v-32q0 -133 -21.5 -210t-68.5 -118q-39 -33 -95 -45 q78 -29 129 -82q121 -123 121 -403q0 -74 -16 -130t-49 -100q-90 -117 -305 -116q-143 0 -217 86q-31 37 -45.5 78t-19.5 77.5t-3 61z" />
<glyph unicode="&#xb9;" horiz-adv-x="843" d="M145 35q0 23 23 22h266v1368l-239 -239q-6 -6 -15.5 -6t-15.5 6q-18 14 0 31l276 276q10 10 25 6q12 -6 12 -20v-1422h260q20 0 21 -22q0 -23 -21 -23h-569q-23 0 -23 23z" />
<glyph unicode="&#xba;" horiz-adv-x="927" d="M154 311v35v840q0 164 98 256q41 35 92 55.5t107 20.5q55 0 107 -18.5t93 -53.5q104 -92 105 -260v-852v-33q0 -27 -8.5 -64.5t-25.5 -80.5t-52 -80q-80 -84 -219 -84q-137 0 -215 84q-35 37 -52.5 82t-23.5 84.5t-6 68.5zM197 311q0 -23 6 -54q6 -36 20.5 -78t44.5 -75 q66 -70 183 -69q121 0 188 71q31 33 45 72t20.5 73t6.5 57v24l2 854q0 80 -23.5 135t-61.5 89t-85 49.5t-92 15.5q-47 0 -93.5 -17.5t-81 -52.5t-56 -90t-21.5 -129v-842q-2 -29 -2 -33z" />
<glyph unicode="&#xbc;" horiz-adv-x="2701" d="M1944 762l190 723q8 20 27 14q20 -4 16 -26l-184 -695h580v701q0 23 22 22q23 0 23 -22v-1444q0 -23 -23 -23t-22 23v700h-609q-10 0 -16 8q-6 11 -4 19zM145 35q0 23 23 22h266v1368l-239 -239q-6 -6 -15.5 -6t-15.5 6q-18 14 0 31l276 276q10 10 25 6q12 -6 12 -20 v-1422h260q20 0 21 -22q0 -23 -21 -23h-569q-23 0 -23 23z" />
<glyph unicode="&#xbd;" horiz-adv-x="2818" d="M2022 14q0 90 25.5 178.5t78.5 180.5q45 80 102 154l117 147l101 127q49 63 86.5 126.5t60.5 129t23 135.5v2q2 37 -7 74q-6 33 -20 69.5t-43 67.5q-68 72 -191 72q-125 0 -184 -70q-27 -31 -39 -67.5t-15 -68.5t-2 -53l1 -22q4 -20 -19 -25q-20 -4 -24 19q0 2 -2 26.5 t2 61.5t18.5 78t44.5 78q74 86 219 86q143 0 224 -86q33 -35 50 -75t24.5 -76t7.5 -61v-32q0 -74 -24 -143.5t-63.5 -136t-90 -132l-105.5 -131.5l-111 -140q-55 -71 -98 -145.5t-71.5 -155.5t-32.5 -169h409q55 0 88 11t49.5 34.5t21.5 59.5t5 85q0 23 21 23q23 0 22 -23 q0 -55 -6 -97t-29 -73q-25 -33 -65.5 -48t-106.5 -15h-432q-20 0 -20 20zM145 35q0 23 23 22h266v1368l-239 -239q-6 -6 -15.5 -6t-15.5 6q-18 14 0 31l276 276q10 10 25 6q12 -6 12 -20v-1422h260q20 0 21 -22q0 -23 -21 -23h-569q-23 0 -23 23z" />
<glyph unicode="&#xbe;" horiz-adv-x="2746" d="M1989 762l190 723q8 20 27 14q20 -4 16 -26l-184 -695h580v701q0 23 22 22q23 0 23 -22v-1444q0 -23 -23 -23t-22 23v700h-609q-10 0 -16 8q-6 11 -4 19zM125 292.5q2 24.5 2 26.5q4 23 25 19q23 -4 18 -25l-1 -21q-1 -22 2 -53.5t15.5 -67.5t38.5 -67q59 -72 185 -71 q193 0 270 100q57 72 57 203q0 246 -93 358.5t-298 112.5q-23 0 -22 20v2q0 23 22 23q86 0 148.5 7t101.5 40t57.5 103.5t18.5 193.5v22q0 22 -6.5 54.5t-21.5 69t-44 67.5q-66 72 -190 72q-125 0 -185 -72q-27 -31 -39 -66.5t-15 -67.5t-2 -53l1 -22q4 -20 -18 -24 q-20 -4 -25 18q0 2 -2 26.5t3 61.5t19.5 78t45.5 78q74 86 217 86t223 -86q33 -35 50 -76t24.5 -76t7.5 -60v-32q0 -133 -21.5 -210t-68.5 -118q-39 -33 -95 -45q78 -29 129 -82q121 -123 121 -403q0 -74 -16 -130t-49 -100q-90 -117 -305 -116q-143 0 -217 86 q-31 37 -45.5 78t-19.5 77.5t-3 61z" />
<glyph unicode="&#xc0;" horiz-adv-x="866" d="M336 1890q-6 20 15 24q18 6 24 -14l68 -233q4 -20 -15 -25q-20 -6 -24 14zM115 37l291 1448q2 0 2 2v2l2 2v2h2v2h2v2h2q0 2 2 2h2v2h2h4h2h2h4l2 -2h2h2v-2h2v-2h2v-2l2 -2v-2h3v-2v-2l290 -1448q2 -4 2 -7q0 -4 -3 -8q-5 -7 -15 -10h-4q-18 0 -23 17l-61 309h-414 l-63 -309q-4 -16 -21 -17h-4q-22 5 -18 25zM229 383h398l-199 985z" />
<glyph unicode="&#xc2;" horiz-adv-x="866" d="M115 37l291 1448q2 0 2 2v2l2 2v2h2v2h2v2h2q0 2 2 2h2v2h2h4h2h2h4l2 -2h2h2v-2h2v-2h2v-2l2 -2v-2h3v-2v-2l290 -1448q2 -4 2 -7q0 -4 -3 -8q-5 -7 -15 -10h-4q-18 0 -23 17l-61 309h-414l-63 -309q-4 -16 -21 -17h-4q-22 5 -18 25zM229 383h398l-199 985z" />
<glyph unicode="&#xc3;" horiz-adv-x="866" d="M155 1707.5q0 9.5 7 15.5q14 14 30 0q2 -2 18.5 -14.5t46.5 -20.5t70.5 -3t90.5 40q63 43 113 47t83 -6q33 -12 56 -27l20 -16q14 -16 0 -31q-6 -6 -15.5 -6t-15.5 6q-2 2 -17 14.5t-43 19.5t-68 2t-89 -38q-41 -29 -77.5 -39t-65.5 -10q-35 0 -57 8q-37 10 -58.5 25.5 t-21.5 17.5q-7 6 -7 15.5zM115 37l291 1448q2 0 2 2v2l2 2v2h2v2h2v2h2q0 2 2 2h2v2h2h4h2h2h4l2 -2h2h2v-2h2v-2h2v-2l2 -2v-2h3v-2v-2l290 -1448q2 -4 2 -7q0 -4 -3 -8q-5 -7 -15 -10h-4q-18 0 -23 17l-61 309h-414l-63 -309q-4 -16 -21 -17h-4q-22 5 -18 25zM229 383h398 l-199 985z" />
<glyph unicode="&#xc5;" horiz-adv-x="866" d="M129 35l289 1442q0 2 2 4v2v2h2v2h2v2h2l2 2h2v2h2q4 0 6 2h2h2q0 -2 4 -2h3l2 -2q2 0 2 -2h2v-2h2v-2h2v-2v-2q2 0 2 -2v-2l289 -1442q4 -8 -1.5 -15.5t-15.5 -9.5h-4q-16 0 -20 17l-64 309h-412l-63 -309q-4 -16 -20 -17h-5q-20 5 -16 25zM242 377h395l-197 989z M305 1765q0 57 40 96.5t95 39.5q57 0 96 -39t39 -97q0 -55 -38.5 -96t-96.5 -41q-55 0 -95 41t-40 96zM346 1765q0 -41 27.5 -67.5t66.5 -26.5t67 26.5t28 67.5q0 39 -28 66t-67 27t-66.5 -27t-27.5 -66z" />
<glyph unicode="&#xc6;" horiz-adv-x="1841" d="M231 -2l527 1491q4 14 20 14h84h2q18 -4 19 -20q0 -23 -21 -23h-10h-6h-51l-373 -1052l-14 -41h438h10q20 0 21 -21q0 -23 -21 -22h-10h-453l-121 -340q-4 -14 -20 -15q-4 0 -6 2q-23 9 -15 27zM846 27v297h10q20 0 21 22q0 20 -21 21h-10v299v794h6h10q20 0 21 23 q0 16 -19 20h4h537q23 0 22 -20q0 -23 -22 -23h-514v-774h391q20 0 21 -20q0 -23 -21 -23h-391v-594h514q23 0 22 -22q0 -20 -22 -21h-537q-22 1 -22 21z" />
<glyph unicode="&#xc8;" horiz-adv-x="974" d="M403 1890q-6 20 15 24q18 6 24 -14l68 -233q4 -20 -15 -25q-20 -6 -24 14zM207 33v1446q0 23 22 22h533q23 0 22 -22q0 -20 -22 -21h-512v-770h389q23 0 23 -20q0 -23 -23 -23h-389v-590h512q23 0 22 -22q0 -20 -22 -21h-533q-22 1 -22 21z" />
<glyph unicode="&#xca;" horiz-adv-x="974" d="M207 33v1446q0 23 22 22h533q23 0 22 -22q0 -20 -22 -21h-512v-770h389q23 0 23 -20q0 -23 -23 -23h-389v-590h512q23 0 22 -22q0 -20 -22 -21h-533q-22 1 -22 21z" />
<glyph unicode="&#xcc;" horiz-adv-x="507" d="M157 1890q-6 20 15 24q18 6 24 -14l68 -233q4 -20 -15 -25q-20 -6 -24 14zM227 33v1448q0 20 23 20t22 -20v-1448q0 -20 -22 -21q-23 1 -23 21z" />
<glyph unicode="&#xce;" horiz-adv-x="507" d="M227 33v1448q0 20 23 20t22 -20v-1448q0 -20 -22 -21q-23 1 -23 21z" />
<glyph unicode="&#xd1;" horiz-adv-x="1038" d="M247 1707.5q0 9.5 7 15.5q14 14 30 0q2 -2 18.5 -14.5t46.5 -20.5t70.5 -3t90.5 40q63 43 113 47t83 -6q33 -12 56 -27l20 -16q14 -16 0 -31q-6 -6 -15.5 -6t-15.5 6q-2 2 -17 14.5t-43 19.5t-68 2t-89 -38q-41 -29 -77.5 -39t-65.5 -10q-35 0 -57 8q-37 10 -58.5 25.5 t-21.5 17.5q-7 6 -7 15.5zM186 33v1448v2l2 2v2v2l2 2v2h3v2h2v2h2q0 2 2 2h2q0 2 2 2h2h2h2h2h2h2h2q0 -2 2 -2h2v-2h2l2 -2v-2h2v-2l2 -2l584 -1350v1342q0 20 23 20t22 -20v-1448h-2v-2v-2v-2v-2h-2v-2v-3h-2v-2h-2v-2h-2v-2h-2l-2 -2h-4h-4h-5h-2q-2 0 -4 2h-2q0 2 -2 2 l-2 2l-2 2v3q-2 0 -2 2l-584 1349v-1341q0 -20 -22 -21q-23 1 -23 21z" />
<glyph unicode="&#xd2;" horiz-adv-x="927" d="M358 1890q-6 20 15 24q18 6 24 -14l68 -233q4 -20 -15 -25q-20 -6 -24 14zM154 311v35v840q0 164 98 256q41 35 92 55.5t107 20.5q55 0 107 -18.5t93 -53.5q104 -92 105 -260v-852v-33q0 -27 -8.5 -64.5t-25.5 -80.5t-52 -80q-80 -84 -219 -84q-137 0 -215 84 q-35 37 -52.5 82t-23.5 84.5t-6 68.5zM197 311q0 -23 6 -54q6 -36 20.5 -78t44.5 -75q66 -70 183 -69q121 0 188 71q31 33 45 72t20.5 73t6.5 57v24l2 854q0 80 -23.5 135t-61.5 89t-85 49.5t-92 15.5q-47 0 -93.5 -17.5t-81 -52.5t-56 -90t-21.5 -129v-842q-2 -29 -2 -33z " />
<glyph unicode="&#xd4;" horiz-adv-x="927" d="M154 311v35v840q0 164 98 256q41 35 92 55.5t107 20.5q55 0 107 -18.5t93 -53.5q104 -92 105 -260v-852v-33q0 -27 -8.5 -64.5t-25.5 -80.5t-52 -80q-80 -84 -219 -84q-137 0 -215 84q-35 37 -52.5 82t-23.5 84.5t-6 68.5zM197 311q0 -23 6 -54q6 -36 20.5 -78t44.5 -75 q66 -70 183 -69q121 0 188 71q31 33 45 72t20.5 73t6.5 57v24l2 854q0 80 -23.5 135t-61.5 89t-85 49.5t-92 15.5q-47 0 -93.5 -17.5t-81 -52.5t-56 -90t-21.5 -129v-842q-2 -29 -2 -33z" />
<glyph unicode="&#xd5;" horiz-adv-x="927" d="M180 1707.5q0 9.5 7 15.5q14 14 30 0q2 -2 18.5 -14.5t46.5 -20.5t70.5 -3t90.5 40q63 43 113 47t83 -6q33 -12 56 -27l20 -16q14 -16 0 -31q-6 -6 -15.5 -6t-15.5 6q-2 2 -17 14.5t-43 19.5t-68 2t-89 -38q-41 -29 -77.5 -39t-65.5 -10q-35 0 -57 8q-37 10 -58.5 25.5 t-21.5 17.5q-7 6 -7 15.5zM154 311v35v840q0 164 98 256q41 35 92 55.5t107 20.5q55 0 107 -18.5t93 -53.5q104 -92 105 -260v-852v-33q0 -27 -8.5 -64.5t-25.5 -80.5t-52 -80q-80 -84 -219 -84q-137 0 -215 84q-35 37 -52.5 82t-23.5 84.5t-6 68.5zM197 311q0 -23 6 -54 q6 -36 20.5 -78t44.5 -75q66 -70 183 -69q121 0 188 71q31 33 45 72t20.5 73t6.5 57v24l2 854q0 80 -23.5 135t-61.5 89t-85 49.5t-92 15.5q-47 0 -93.5 -17.5t-81 -52.5t-56 -90t-21.5 -129v-842q-2 -29 -2 -33z" />
<glyph unicode="&#xd8;" horiz-adv-x="927" d="M123 -33l70 178q-16 33 -23.5 67t-9.5 61.5t-2 47.5v23v852q0 166 100 260q39 37 91 56.5t110 19.5q119 0 205 -74q6 -4 11 -10t11 -10l57 151q8 18 29 13q18 -8 12 -29l-67 -178q51 -84 51 -199v-866v-32q0 -28 -8 -66.5t-25.5 -82t-52.5 -79.5q-80 -86 -223 -86 q-141 0 -217 86l-11.5 12t-11.5 14l-55 -145q-4 -14 -21 -14q-4 0 -8 2q-18 8 -12 28zM203 301q0 -18 2 -41.5t10 -50.5l453 1180q-41 53 -97.5 75.5t-111.5 22.5q-49 0 -95.5 -17.5t-82 -53.5t-57 -90t-21.5 -130v-854v-2v-39zM240 147l16 -24q8 -12 18 -25q63 -70 185 -69 q123 0 190 71q31 33 46.5 72t21.5 74q8 39 6 82v2v866q0 43 -7 79t-20 66z" />
<glyph unicode="&#xd9;" horiz-adv-x="1026" d="M428 1890q-6 20 15 24q18 6 24 -14l68 -233q4 -20 -15 -25q-20 -6 -24 14zM219 324v34v1131q0 20 23 20t22 -20v-1133v-2q-1 -15 -1 -29q0 -29 5 -57q4 -37 19.5 -76.5t46.5 -74.5q63 -70 182 -70q121 0 189 72q29 33 44 70.5t21 72.5q7 31 7 64q0 8 -1 16v2v1143 q0 23 23 22q23 0 22 -22v-1143v-31q0 -27 -8 -64.5t-25.5 -80.5t-52.5 -80q-78 -84 -219 -84q-139 0 -215 84q-35 37 -52.5 82t-23.5 85t-6 69z" />
<glyph unicode="&#xdb;" horiz-adv-x="1026" d="M219 324v34v1131q0 20 23 20t22 -20v-1133v-2q-1 -15 -1 -29q0 -29 5 -57q4 -37 19.5 -76.5t46.5 -74.5q63 -70 182 -70q121 0 189 72q29 33 44 70.5t21 72.5q7 31 7 64q0 8 -1 16v2v1143q0 23 23 22q23 0 22 -22v-1143v-31q0 -27 -8 -64.5t-25.5 -80.5t-52.5 -80 q-78 -84 -219 -84q-139 0 -215 84q-35 37 -52.5 82t-23.5 85t-6 69z" />
<glyph unicode="&#xe0;" horiz-adv-x="866" d="M336 1890q-6 20 15 24q18 6 24 -14l68 -233q4 -20 -15 -25q-20 -6 -24 14zM115 37l291 1448q2 0 2 2v2l2 2v2h2v2h2v2h2q0 2 2 2h2v2h2h4h2h2h4l2 -2h2h2v-2h2v-2h2v-2l2 -2v-2h3v-2v-2l290 -1448q2 -4 2 -7q0 -4 -3 -8q-5 -7 -15 -10h-4q-18 0 -23 17l-61 309h-414 l-63 -309q-4 -16 -21 -17h-4q-22 5 -18 25zM229 383h398l-199 985z" />
<glyph unicode="&#xe2;" horiz-adv-x="866" d="M115 37l291 1448q2 0 2 2v2l2 2v2h2v2h2v2h2q0 2 2 2h2v2h2h4h2h2h4l2 -2h2h2v-2h2v-2h2v-2l2 -2v-2h3v-2v-2l290 -1448q2 -4 2 -7q0 -4 -3 -8q-5 -7 -15 -10h-4q-18 0 -23 17l-61 309h-414l-63 -309q-4 -16 -21 -17h-4q-22 5 -18 25zM229 383h398l-199 985z" />
<glyph unicode="&#xe3;" horiz-adv-x="866" d="M155 1707.5q0 9.5 7 15.5q14 14 30 0q2 -2 18.5 -14.5t46.5 -20.5t70.5 -3t90.5 40q63 43 113 47t83 -6q33 -12 56 -27l20 -16q14 -16 0 -31q-6 -6 -15.5 -6t-15.5 6q-2 2 -17 14.5t-43 19.5t-68 2t-89 -38q-41 -29 -77.5 -39t-65.5 -10q-35 0 -57 8q-37 10 -58.5 25.5 t-21.5 17.5q-7 6 -7 15.5zM115 37l291 1448q2 0 2 2v2l2 2v2h2v2h2v2h2q0 2 2 2h2v2h2h4h2h2h4l2 -2h2h2v-2h2v-2h2v-2l2 -2v-2h3v-2v-2l290 -1448q2 -4 2 -7q0 -4 -3 -8q-5 -7 -15 -10h-4q-18 0 -23 17l-61 309h-414l-63 -309q-4 -16 -21 -17h-4q-22 5 -18 25zM229 383h398 l-199 985z" />
<glyph unicode="&#xe5;" horiz-adv-x="866" d="M115 37l291 1448q2 0 2 2v2l2 2v2h2v2h2v2h2q0 2 2 2h2v2h2h4h2h2h4l2 -2h2h2v-2h2v-2h2v-2l2 -2v-2h3v-2v-2l290 -1448q2 -4 2 -7q0 -4 -3 -8q-5 -7 -15 -10h-4q-18 0 -23 17l-61 309h-414l-63 -309q-4 -16 -21 -17h-4q-22 5 -18 25zM229 383h398l-199 985z" />
<glyph unicode="&#xe8;" horiz-adv-x="974" d="M403 1890q-6 20 15 24q18 6 24 -14l68 -233q4 -20 -15 -25q-20 -6 -24 14zM207 33v1446q0 23 22 22h533q23 0 22 -22q0 -20 -22 -21h-512v-770h389q23 0 23 -20q0 -23 -23 -23h-389v-590h512q23 0 22 -22q0 -20 -22 -21h-533q-22 1 -22 21z" />
<glyph unicode="&#xea;" horiz-adv-x="974" d="M207 33v1446q0 23 22 22h533q23 0 22 -22q0 -20 -22 -21h-512v-770h389q23 0 23 -20q0 -23 -23 -23h-389v-590h512q23 0 22 -22q0 -20 -22 -21h-533q-22 1 -22 21z" />
<glyph unicode="&#xec;" d="M-92 1890q-6 20 15 24q18 6 24 -14l68 -233q4 -20 -15 -25q-20 -6 -24 14z" />
<glyph unicode="&#xf1;" horiz-adv-x="1038" d="M251 1707.5q0 9.5 7 15.5q14 14 30 0q2 -2 18.5 -14.5t46.5 -20.5t70.5 -3t90.5 40q63 43 113 47t83 -6q33 -12 56 -27l20 -16q14 -16 0 -31q-6 -6 -15.5 -6t-15.5 6q-2 2 -17 14.5t-43 19.5t-68 2t-89 -38q-41 -29 -77.5 -39t-65.5 -10q-35 0 -57 8q-37 10 -58.5 25.5 t-21.5 17.5q-7 6 -7 15.5zM186 33v1448v2l2 2v2v2l2 2v2h3v2h2v2h2q0 2 2 2h2q0 2 2 2h2h2h2h2h2h2h2q0 -2 2 -2h2v-2h2l2 -2v-2h2v-2l2 -2l584 -1350v1342q0 20 23 20t22 -20v-1448h-2v-2v-2v-2v-2h-2v-2v-3h-2v-2h-2v-2h-2v-2h-2l-2 -2h-4h-4h-5h-2q-2 0 -4 2h-2q0 2 -2 2 l-2 2l-2 2v3q-2 0 -2 2l-584 1349v-1341q0 -20 -22 -21q-23 1 -23 21z" />
<glyph unicode="&#xf2;" horiz-adv-x="927" d="M358 1890q-6 20 15 24q18 6 24 -14l68 -233q4 -20 -15 -25q-20 -6 -24 14zM154 311v35v840q0 164 98 256q41 35 92 55.5t107 20.5q55 0 107 -18.5t93 -53.5q104 -92 105 -260v-852v-33q0 -27 -8.5 -64.5t-25.5 -80.5t-52 -80q-80 -84 -219 -84q-137 0 -215 84 q-35 37 -52.5 82t-23.5 84.5t-6 68.5zM197 311q0 -23 6 -54q6 -36 20.5 -78t44.5 -75q66 -70 183 -69q121 0 188 71q31 33 45 72t20.5 73t6.5 57v24l2 854q0 80 -23.5 135t-61.5 89t-85 49.5t-92 15.5q-47 0 -93.5 -17.5t-81 -52.5t-56 -90t-21.5 -129v-842q-2 -29 -2 -33z " />
<glyph unicode="&#xf4;" horiz-adv-x="927" d="M154 311v35v840q0 164 98 256q41 35 92 55.5t107 20.5q55 0 107 -18.5t93 -53.5q104 -92 105 -260v-852v-33q0 -27 -8.5 -64.5t-25.5 -80.5t-52 -80q-80 -84 -219 -84q-137 0 -215 84q-35 37 -52.5 82t-23.5 84.5t-6 68.5zM197 311q0 -23 6 -54q6 -36 20.5 -78t44.5 -75 q66 -70 183 -69q121 0 188 71q31 33 45 72t20.5 73t6.5 57v24l2 854q0 80 -23.5 135t-61.5 89t-85 49.5t-92 15.5q-47 0 -93.5 -17.5t-81 -52.5t-56 -90t-21.5 -129v-842q-2 -29 -2 -33z" />
<glyph unicode="&#xf5;" horiz-adv-x="927" d="M180 1707.5q0 9.5 7 15.5q14 14 30 0q2 -2 18.5 -14.5t46.5 -20.5t70.5 -3t90.5 40q63 43 113 47t83 -6q33 -12 56 -27l20 -16q14 -16 0 -31q-6 -6 -15.5 -6t-15.5 6q-2 2 -17 14.5t-43 19.5t-68 2t-89 -38q-41 -29 -77.5 -39t-65.5 -10q-35 0 -57 8q-37 10 -58.5 25.5 t-21.5 17.5q-7 6 -7 15.5zM154 311v35v840q0 164 98 256q41 35 92 55.5t107 20.5q55 0 107 -18.5t93 -53.5q104 -92 105 -260v-852v-33q0 -27 -8.5 -64.5t-25.5 -80.5t-52 -80q-80 -84 -219 -84q-137 0 -215 84q-35 37 -52.5 82t-23.5 84.5t-6 68.5zM197 311q0 -23 6 -54 q6 -36 20.5 -78t44.5 -75q66 -70 183 -69q121 0 188 71q31 33 45 72t20.5 73t6.5 57v24l2 854q0 80 -23.5 135t-61.5 89t-85 49.5t-92 15.5q-47 0 -93.5 -17.5t-81 -52.5t-56 -90t-21.5 -129v-842q-2 -29 -2 -33z" />
<glyph unicode="&#xf9;" horiz-adv-x="1026" d="M428 1890q-6 20 15 24q18 6 24 -14l68 -233q4 -20 -15 -25q-20 -6 -24 14zM219 324v34v1131q0 20 23 20t22 -20v-1133v-2q-1 -15 -1 -29q0 -29 5 -57q4 -37 19.5 -76.5t46.5 -74.5q63 -70 182 -70q121 0 189 72q29 33 44 70.5t21 72.5q7 31 7 64q0 8 -1 16v2v1143 q0 23 23 22q23 0 22 -22v-1143v-31q0 -27 -8 -64.5t-25.5 -80.5t-52.5 -80q-78 -84 -219 -84q-139 0 -215 84q-35 37 -52.5 82t-23.5 85t-6 69z" />
<glyph unicode="&#xfb;" horiz-adv-x="1026" d="M219 324v34v1131q0 20 23 20t22 -20v-1133v-2q-1 -15 -1 -29q0 -29 5 -57q4 -37 19.5 -76.5t46.5 -74.5q63 -70 182 -70q121 0 189 72q29 33 44 70.5t21 72.5q7 31 7 64q0 8 -1 16v2v1143q0 23 23 22q23 0 22 -22v-1143v-31q0 -27 -8 -64.5t-25.5 -80.5t-52.5 -80 q-78 -84 -219 -84q-139 0 -215 84q-35 37 -52.5 82t-23.5 85t-6 69z" />
<glyph unicode="&#x131;" />
<glyph unicode="&#x152;" horiz-adv-x="1902" d="M1135 33v1446q0 23 22 22h533q23 0 22 -22q0 -20 -22 -21h-512v-770h389q23 0 23 -20q0 -23 -23 -23h-389v-590h512q23 0 22 -22q0 -20 -22 -21h-533q-22 1 -22 21zM154 311v35v840q0 164 98 256q41 35 92 55.5t107 20.5q55 0 107 -18.5t93 -53.5q104 -92 105 -260v-852 v-33q0 -27 -8.5 -64.5t-25.5 -80.5t-52 -80q-80 -84 -219 -84q-137 0 -215 84q-35 37 -52.5 82t-23.5 84.5t-6 68.5zM197 311q0 -23 6 -54q6 -36 20.5 -78t44.5 -75q66 -70 183 -69q121 0 188 71q31 33 45 72t20.5 73t6.5 57v24l2 854q0 80 -23.5 135t-61.5 89t-85 49.5 t-92 15.5q-47 0 -93.5 -17.5t-81 -52.5t-56 -90t-21.5 -129v-842q-2 -29 -2 -33z" />
<glyph unicode="&#x153;" horiz-adv-x="1902" d="M1135 33v1446q0 23 22 22h533q23 0 22 -22q0 -20 -22 -21h-512v-770h389q23 0 23 -20q0 -23 -23 -23h-389v-590h512q23 0 22 -22q0 -20 -22 -21h-533q-22 1 -22 21zM154 311v35v840q0 164 98 256q41 35 92 55.5t107 20.5q55 0 107 -18.5t93 -53.5q104 -92 105 -260v-852 v-33q0 -27 -8.5 -64.5t-25.5 -80.5t-52 -80q-80 -84 -219 -84q-137 0 -215 84q-35 37 -52.5 82t-23.5 84.5t-6 68.5zM197 311q0 -23 6 -54q6 -36 20.5 -78t44.5 -75q66 -70 183 -69q121 0 188 71q31 33 45 72t20.5 73t6.5 57v24l2 854q0 80 -23.5 135t-61.5 89t-85 49.5 t-92 15.5q-47 0 -93.5 -17.5t-81 -52.5t-56 -90t-21.5 -129v-842q-2 -29 -2 -33z" />
<glyph unicode="&#x2c6;" />
<glyph unicode="&#x2da;" />
<glyph unicode="&#x2dc;" horiz-adv-x="765" d="M106 1299.5q0 9.5 7 15.5q14 14 30 0q2 -2 18.5 -14.5t46.5 -20.5t70.5 -3t90.5 40q63 43 113 47t83 -6q33 -12 56 -27l20 -16q14 -16 0 -31q-6 -6 -15.5 -6t-15.5 6q-2 2 -17 14.5t-43 19.5t-68 2t-89 -38q-41 -29 -77.5 -39t-65.5 -10q-35 0 -57 8q-37 10 -58.5 25.5 t-21.5 17.5q-7 6 -7 15.5z" />
<glyph unicode="&#x2013;" />
<glyph unicode="&#x2014;" />
<glyph unicode="&#x2018;" horiz-adv-x="413" d="M139 1616q-6 20 15 24q18 6 24 -14l68 -233q4 -20 -15 -25q-20 -6 -24 14z" />
<glyph unicode="&#x2019;" horiz-adv-x="393" d="M137 1393l68 233q6 20 24 14q20 -4 15 -24l-68 -234q-4 -20 -24 -14q-19 5 -15 25z" />
<glyph unicode="&#x201a;" />
<glyph unicode="&#x201c;" horiz-adv-x="518" d="M139 1616q-6 20 15 24q18 6 24 -14l68 -233q4 -20 -15 -25q-20 -6 -24 14zM264 1616q-6 20 15 24q18 6 24 -14l68 -233q4 -20 -15 -25q-20 -6 -24 14z" />
<glyph unicode="&#x201d;" horiz-adv-x="505" d="M137 1393l68 233q6 20 24 14q20 -4 15 -24l-68 -234q-4 -20 -24 -14q-19 5 -15 25zM262 1393l68 233q6 20 24 14q20 -4 15 -24l-68 -234q-4 -20 -25 -14q-18 5 -14 25z" />
<glyph unicode="&#x201e;" />
<glyph unicode="&#x2022;" />
<glyph unicode="&#x2026;" />
<glyph unicode="&#x2039;" />
<glyph unicode="&#x203a;" horiz-adv-x="815" d="M152 1271q0 9 6 15q14 14 30 0l519 -518q6 -6 6 -14q0 -10 -6 -17l-514 -510q-6 -8 -15 -8q-8 0 -16 8q-6 6 -6 15.5t6 15.5l497 496l-501 501q-6 7 -6 16z" />
<glyph unicode="&#x2044;" horiz-adv-x="1024" />
<glyph unicode="&#x20ac;" />
<glyph unicode="&#x2122;" horiz-adv-x="944" d="M61 1360q0 33 33 33h287q33 0 33 -33t-33 -33h-111v-418q0 -14 -9 -23t-21 -9q-33 0 -33 32v418h-113q-33 0 -33 33zM467 907v451v2v2v2v2q2 2 2 8h2v2q2 0 2 2l4 4q0 2 2 2h2v2h2h2v3h2l2 2h3h2h2h2h2h2h2h2l4 -2h2l2 -3h2v-2h2l4 -4h2v-2v-2h2v-2h2l138 -272l137 272h2 v2l2 2v2q2 2 3 2t3 2h2v2h2v3q4 0 6 2h2h2h2h2h3h2h2h2h2v-2h2h2v-3h2h2v-2h2v-2h2l4 -4v-2h2v-2q2 -2 2 -8h2v-2v-2v-2v-2v-451q0 -33 -33 -33q-12 0 -21 9.5t-9 23.5v318l-105 -205q-4 -4 -7 -9t-9 -10q-4 -2 -14 -2t-15 2q-12 6 -16 19l-105 205v-318q0 -14 -9 -23.5 t-21 -9.5q-33 0 -33 33z" />
<glyph unicode="&#xe000;" horiz-adv-x="1495" d="M0 1495h1495v-1495h-1495v1495z" />
<glyph unicode="&#xfb01;" horiz-adv-x="1468" d="M1188 33v1448q0 20 23 20t22 -20v-1448q0 -20 -22 -21q-23 1 -23 21zM199 33v1446q0 23 20 22h547q23 0 22 -22q0 -20 -22 -21h-524v-770h401q23 0 23 -20q0 -23 -23 -23h-401v-612q0 -20 -23 -21q-20 1 -20 21z" />
<glyph unicode="&#xfb02;" horiz-adv-x="2017" d="M1199 33v1448q0 20 22 20q23 0 23 -20v-1426h526q23 0 22 -22q0 -20 -22 -21h-549q-22 1 -22 21zM199 33v1446q0 23 20 22h547q23 0 22 -22q0 -20 -22 -21h-524v-770h401q23 0 23 -20q0 -23 -23 -23h-401v-612q0 -20 -23 -21q-20 1 -20 21z" />
<glyph unicode="&#xfb03;" horiz-adv-x="2428" d="M2148 33v1448q0 20 23 20t22 -20v-1448q0 -20 -22 -21q-23 1 -23 21zM1160 33v1446q0 23 20 22h547q23 0 22 -22q0 -20 -22 -21h-524v-770h401q23 0 23 -20q0 -23 -23 -23h-401v-612q0 -20 -23 -21q-20 1 -20 21zM199 33v1446q0 23 20 22h547q23 0 22 -22q0 -20 -22 -21 h-524v-770h401q23 0 23 -20q0 -23 -23 -23h-401v-612q0 -20 -23 -21q-20 1 -20 21z" />
<glyph unicode="&#xfb04;" horiz-adv-x="2977" d="M2159 33v1448q0 20 22 20q23 0 23 -20v-1426h526q23 0 22 -22q0 -20 -22 -21h-549q-22 1 -22 21zM1160 33v1446q0 23 20 22h547q23 0 22 -22q0 -20 -22 -21h-524v-770h401q23 0 23 -20q0 -23 -23 -23h-401v-612q0 -20 -23 -21q-20 1 -20 21zM199 33v1446q0 23 20 22h547 q23 0 22 -22q0 -20 -22 -21h-524v-770h401q23 0 23 -20q0 -23 -23 -23h-401v-612q0 -20 -23 -21q-20 1 -20 21z" />
</font>
</defs>
</svg>
